<?xml version="1.0" standalone="no"?>
<!DOCTYPE svg PUBLIC "-//W3C//DTD SVG 20010904//EN"
 "http://www.w3.org/TR/2001/REC-SVG-20010904/DTD/svg10.dtd">
<svg version="1.0" xmlns="http://www.w3.org/2000/svg"
 width="540.000000pt" height="540.000000pt" viewBox="0 0 540.000000 540.000000"
 preserveAspectRatio="xMidYMid meet">
<metadata>
Created by potrace 1.11, written by Peter Selinger 2001-2013
</metadata>
<g transform="translate(0.000000,540.000000) scale(0.100000,-0.100000)"
fill="#000000" stroke="none">
<path d="M804 4722 c-227 -30 -388 -165 -449 -376 -16 -54 -17 -140 -17 -985
0 -509 1 -942 1 -962 l1 -36 168 0 167 1 -1 665 c0 366 1 671 3 676 2 7 679 9
2011 8 1104 -1 2014 -2 2022 -3 13 0 15 -147 15 -1287 -1 -1395 2 -1316 -52
-1365 -45 -41 -79 -46 -323 -46 -129 -1 -250 -1 -267 -1 l-33 -1 0 -168 0
-168 283 2 c155 1 300 4 322 8 73 12 196 80 257 142 50 51 123 169 132 214 1
8 6 38 11 65 9 56 11 3101 2 3181 -24 206 -200 393 -407 430 -39 7 -3795 13
-3846 6z m3816 -348 c82 -35 103 -77 105 -217 l1 -107 -2025 2 -2026 3 1 95
c0 52 3 107 7 121 10 40 46 80 90 99 37 17 144 18 1926 18 1610 0 1891 -2
1921 -14z"/>
<path d="M2024 2355 c-7 -5 -33 -109 -59 -230 -26 -121 -48 -227 -50 -235 -18
-77 -25 -109 -30 -135 -11 -56 -16 -77 -31 -144 -9 -36 -18 -77 -20 -91 -3
-14 -21 -97 -40 -185 -20 -88 -38 -171 -40 -185 -3 -14 -7 -33 -10 -42 -3 -9
-7 -27 -9 -39 -3 -13 -14 -68 -26 -123 -12 -56 -29 -138 -39 -184 -10 -45 -15
-84 -11 -86 11 -6 329 -1 336 5 3 4 8 19 11 35 3 16 20 99 39 185 19 86 36
167 39 180 2 13 11 54 20 90 8 37 17 78 20 90 2 13 12 58 21 99 9 41 18 84 20
95 3 11 9 40 15 65 5 25 26 119 45 210 20 91 49 224 65 296 16 73 32 147 35
165 3 19 13 63 21 98 8 35 12 66 9 69 -10 10 -318 7 -331 -3z"/>
<path d="M2748 2227 l-117 -117 295 -296 295 -296 -293 -294 c-161 -162 -293
-295 -293 -296 0 -2 53 -56 117 -120 l116 -117 411 410 c226 225 411 413 411
417 0 6 -817 827 -823 827 -1 0 -55 -53 -119 -118z"/>
<path d="M772 1929 l-412 -411 202 -202 c112 -111 298 -297 415 -414 l212
-211 116 115 c63 64 115 119 115 122 0 4 -131 138 -292 299 l-292 292 290 291
c159 160 291 293 294 296 4 5 -220 234 -231 234 -3 0 -191 -185 -417 -411z"/>
</g>
</svg>
